<?xml version="1.0" encoding="UTF-8"?>
<svg xmlns="http://www.w3.org/2000/svg" xmlns:xlink="http://www.w3.org/1999/xlink" width="px" height="px" viewBox="0 0 1000 397" version="1.1">
<g id="surface1">
<path style=" stroke:none;fill-rule:evenodd;fill:rgb(0%,0%,16.862745%);fill-opacity:1;" d="M 182.703125 282.398438 C 166.285156 281.066406 154.789062 272.183594 142.828125 261.941406 C 130.890625 251.726562 126.515625 231.121094 126.363281 215.28125 L 26.210938 215.28125 C 26.585938 259.945312 46.574219 293.695312 80.03125 322.808594 C 113.730469 352.140625 152.179688 359.300781 198.703125 357.691406 L 339.191406 357.859375 L 339.191406 282.519531 Z M 182.703125 282.398438 "/>
<path style=" stroke:none;fill-rule:evenodd;fill:rgb(82.745098%,9.411765%,9.411765%);fill-opacity:1;" d="M 191.285156 216.601562 C 173.484375 232.054688 191.304688 251.625 191.304688 251.625 L 339.195312 251.625 L 339.058594 192.925781 L 339.171875 192.953125 C 339.929688 150.730469 324.914062 114.421875 294.289062 84.316406 C 263.671875 54.203125 226.394531 39.105469 182.710938 39.105469 L 182.710938 125.554688 L 242.613281 125.554688 C 268.175781 125.554688 288.894531 145.515625 288.894531 170.128906 L 288.894531 193.488281 C 288.894531 207.664062 281.566406 214.695312 266.871094 214.695312 L 195.449219 214.695312 C 193.914062 214.691406 191.390625 216.515625 191.285156 216.601562 Z M 191.285156 216.601562 "/>
<path style=" stroke:none;fill-rule:evenodd;fill:rgb(82.745098%,9.411765%,9.411765%);fill-opacity:1;" d="M 185.496094 162.703125 C 185.496094 158.585938 192.324219 155.25 200.734375 155.25 L 242.925781 155.25 C 251.324219 155.25 258.171875 158.585938 258.171875 162.703125 L 258.171875 177.570312 C 258.171875 181.660156 251.113281 184.515625 242.714844 184.515625 L 201.304688 184.515625 C 192.863281 184.515625 185.488281 181.660156 185.488281 177.570312 L 185.488281 162.703125 Z M 185.496094 162.703125 "/>
<path style=" stroke:none;fill-rule:evenodd;fill:rgb(0%,0%,16.862745%);fill-opacity:1;" d="M 182.703125 125.550781 L 182.703125 39.101562 C 139.03125 39.101562 101.746094 54.199219 71.125 84.308594 C 40.5 114.414062 25.523438 142.289062 26.269531 184.515625 L 126.808594 184.515625 L 126.808594 179.25 C 126.808594 151.875 153.15625 126.683594 182.703125 125.550781 Z M 182.703125 125.550781 "/>
<path style=" stroke:none;fill-rule:nonzero;fill:rgb(0%,0%,16.862745%);fill-opacity:1;" d="M 648.550781 156.078125 L 680.535156 156.078125 L 680.535156 282.246094 L 648.550781 282.246094 Z M 648.550781 156.078125 "/>
<path style=" stroke:none;fill-rule:nonzero;fill:rgb(82.745098%,9.411765%,9.411765%);fill-opacity:1;" d="M 648.449219 128.585938 C 648.449219 119.375 655.925781 111.898438 665.140625 111.898438 C 674.355469 111.898438 681.839844 119.375 681.839844 128.585938 C 681.839844 137.796875 674.351562 145.269531 665.140625 145.269531 C 655.929688 145.269531 648.449219 137.796875 648.449219 128.585938 Z M 648.449219 128.585938 "/>
<path style=" stroke:none;fill-rule:nonzero;fill:rgb(0%,0%,16.862745%);fill-opacity:1;" d="M 366.433594 282.246094 L 398.394531 282.246094 L 398.394531 231.925781 C 398.394531 218.878906 398.855469 210.398438 399.785156 206.464844 C 401.503906 198.980469 404.691406 193.078125 409.25 188.820312 C 413.804688 184.558594 419.285156 182.421875 425.636719 182.421875 C 430.566406 182.421875 434.65625 183.726562 437.996094 186.265625 C 441.339844 188.859375 443.671875 192.589844 445.011719 197.515625 C 446.351562 202.410156 447.035156 212.351562 447.035156 227.316406 L 447.035156 282.238281 L 479.003906 282.238281 L 479.003906 199.164062 C 479.003906 184.683594 475.320312 173.769531 467.945312 166.363281 C 459.179688 157.671875 448.503906 153.316406 435.960938 153.316406 C 429.835938 153.316406 366.433594 156.074219 366.433594 156.074219 Z M 366.433594 282.246094 "/>
<path style=" stroke:none;fill-rule:nonzero;fill:rgb(0%,0%,16.862745%);fill-opacity:1;" d="M 588.613281 192.210938 C 595.230469 198.765625 598.53125 207.21875 598.53125 217.664062 C 598.53125 228.253906 595.230469 236.820312 588.675781 243.351562 C 582.105469 249.894531 573.78125 253.121094 563.679688 253.121094 C 553.335938 253.121094 544.753906 249.789062 537.894531 243.105469 C 531.050781 236.433594 527.648438 227.863281 527.648438 217.433594 C 527.648438 207.375 530.980469 199.023438 537.664062 192.394531 C 544.351562 185.765625 552.816406 182.425781 563.089844 182.425781 C 573.511719 182.421875 582.015625 185.679688 588.613281 192.210938 Z M 556.015625 153.316406 C 540.015625 153.316406 526.253906 158.789062 514.75 169.710938 C 502.019531 181.820312 495.675781 197.859375 495.675781 217.78125 C 495.675781 236.433594 501.675781 251.828125 513.691406 264.011719 C 525.683594 276.179688 540.378906 282.246094 557.785156 282.246094 C 565.75 282.246094 572.835938 281.023438 579.136719 278.53125 C 585.421875 276.058594 591.40625 272.015625 597.128906 266.304688 C 597.128906 276.40625 596.039062 283.539062 593.875 287.65625 C 591.679688 291.785156 587.90625 295.160156 582.609375 297.753906 C 577.261719 300.351562 570.230469 301.65625 561.503906 301.65625 C 554.675781 301.65625 548.734375 300.695312 543.738281 298.871094 C 538.730469 296.976562 534.628906 294.203125 531.453125 290.566406 L 495.570312 290.566406 C 498.421875 299.144531 502.816406 306.421875 508.765625 312.445312 C 514.726562 318.46875 521.984375 323.003906 530.640625 326.136719 C 539.265625 329.203125 549.894531 330.769531 562.578125 330.769531 C 586.339844 330.769531 604.121094 323.996094 615.941406 310.480469 C 624.703125 300.464844 629.101562 284.839844 629.101562 263.621094 L 629.101562 156.078125 L 597.128906 156.078125 C 597.125 156.078125 563.480469 153.316406 556.015625 153.316406 Z M 556.015625 153.316406 "/>
<path style=" stroke:none;fill-rule:nonzero;fill:rgb(0%,0%,16.862745%);fill-opacity:1;" d="M 787.144531 192.496094 C 793.875 199.210938 797.289062 207.988281 797.289062 218.808594 C 797.289062 229.886719 793.875 238.839844 787.144531 245.671875 C 780.359375 252.5 771.890625 255.914062 761.660156 255.914062 C 751.703125 255.914062 743.351562 252.441406 736.578125 245.484375 C 729.78125 238.554688 726.40625 229.683594 726.40625 218.925781 C 726.40625 208.265625 729.703125 199.511719 736.390625 192.679688 C 743.058594 185.851562 751.453125 182.421875 761.546875 182.421875 C 771.835938 182.421875 780.355469 185.78125 787.144531 192.496094 Z M 755.144531 153.316406 C 738.253906 153.316406 723.925781 159.496094 712.113281 171.84375 C 700.320312 184.199219 694.425781 200.039062 694.425781 219.378906 C 694.425781 238.046875 700.511719 253.675781 712.703125 266.199219 C 724.929688 278.738281 739.363281 285.011719 756.066406 285.011719 C 763.511719 285.011719 770.429688 283.734375 776.816406 281.121094 C 783.183594 278.523438 789.554688 274.273438 795.886719 268.363281 L 795.886719 328 L 827.839844 328 L 827.839844 156.078125 C 827.835938 156.078125 762.878906 153.316406 755.144531 153.316406 Z M 755.144531 153.316406 "/>
<path style=" stroke:none;fill-rule:nonzero;fill:rgb(0%,0%,16.862745%);fill-opacity:1;" d="M 932.019531 192.59375 C 938.535156 199.371094 941.820312 208.148438 941.820312 218.996094 C 941.820312 229.828125 938.503906 238.679688 931.851562 245.554688 C 925.203125 252.453125 916.886719 255.914062 906.886719 255.914062 C 896.898438 255.914062 888.621094 252.5 882.089844 245.699219 C 875.589844 238.898438 872.320312 229.988281 872.320312 219 C 872.320312 208.296875 875.636719 199.546875 882.234375 192.683594 C 888.851562 185.855469 897.054688 182.425781 907 182.425781 C 917.15625 182.421875 925.503906 185.820312 932.019531 192.59375 Z M 862.214844 170.371094 C 847.625 183.398438 840.351562 199.714844 840.351562 219.269531 C 840.351562 237.550781 846.804688 253.074219 859.703125 265.84375 C 872.621094 278.628906 888.175781 285.015625 906.410156 285.015625 C 918.820312 285.015625 930.140625 282.144531 940.445312 276.320312 C 950.734375 270.523438 958.855469 262.488281 964.824219 252.183594 C 970.78125 241.941406 973.796875 230.890625 973.796875 219.039062 C 973.796875 207.316406 970.808594 196.371094 964.898438 186.238281 C 958.988281 176.09375 950.738281 168.074219 940.164062 162.175781 C 929.589844 156.28125 918.300781 153.316406 906.316406 153.316406 C 889.691406 153.316406 874.984375 158.988281 862.214844 170.371094 Z M 862.214844 170.371094 "/>
</g>
</svg>
